<svg xmlns="http://www.w3.org/2000/svg" width="257" height="28" viewBox="0 0 257 28">
  <g fill="#0081CB">
    <path d="M103.8 22.4C102.2 22.4 100.8 22 99.7 21.3 98.6 20.6 97.7 19.7 97.1 18.5L98.9 17C99.6 18 100.3 18.8 101 19.3 101.8 19.8 102.7 20.1 103.8 20.1 105 20.1 106 19.7 106.8 18.8 107.6 17.9 108 16.6 108 14.9L108 .4 110.5.4 110.5 14.9C110.5 16.2 110.3 17.3 110 18.2 109.7 19.2 109.2 19.9 108.6 20.6 107.4 21.8 105.8 22.4 103.8 22.4zM119.9 22.4C119.2 22.4 118.4 22.3 117.7 22.1 117 21.9 116.3 21.6 115.8 21.2 115.2 20.8 114.8 20.3 114.5 19.7 114.2 19.1 114 18.4 114 17.6L114 17.5C114 16.7 114.2 15.9 114.5 15.3 114.8 14.7 115.3 14.2 115.9 13.7 116.5 13.3 117.2 13 118.1 12.7 118.9 12.5 119.8 12.4 120.9 12.4 121.9 12.4 122.8 12.5 123.6 12.6 124.3 12.7 125.1 12.9 125.8 13.1L125.8 12.6C125.8 11.2 125.4 10.2 124.6 9.5 123.8 8.8 122.6 8.4 121.1 8.4 120.2 8.4 119.3 8.5 118.5 8.7 117.7 8.9 117 9.2 116.2 9.5L115.5 7.6C116.4 7.2 117.3 6.9 118.2 6.6 119.1 6.4 120.1 6.2 121.3 6.2 123.6 6.2 125.3 6.8 126.4 7.9 127.5 9 128.1 10.5 128.1 12.4L128.1 22.2 125.8 22.2 125.8 19.6C125.2 20.3 124.5 20.9 123.6 21.4 122.5 22.1 121.3 22.4 119.9 22.4zM120.4 20.5C121.1 20.5 121.8 20.4 122.5 20.2 123.1 20 123.7 19.7 124.2 19.4 124.7 19 125.1 18.6 125.3 18.1 125.6 17.6 125.7 17 125.7 16.4L125.7 15C125.1 14.8 124.4 14.7 123.7 14.6 122.9 14.5 122.1 14.4 121.1 14.4 119.6 14.4 118.5 14.7 117.7 15.2 116.9 15.8 116.5 16.5 116.5 17.4L116.5 17.5C116.5 18 116.6 18.4 116.8 18.8 117 19.2 117.3 19.5 117.7 19.8 118.1 20.1 118.5 20.3 119 20.4 119.4 20.4 119.9 20.5 120.4 20.5zM138 22.4C136.8 22.4 135.7 22.2 134.5 21.8 133.3 21.4 132.3 20.8 131.4 20.1L132.6 18.5C133.5 19.1 134.4 19.6 135.3 20 136.2 20.3 137.2 20.5 138.1 20.5 139.1 20.5 139.9 20.3 140.5 19.8 141.1 19.4 141.4 18.8 141.4 18L141.4 18C141.4 17.6 141.3 17.3 141.1 17 140.9 16.7 140.6 16.5 140.2 16.3 139.8 16.1 139.4 15.9 138.9 15.7 138.4 15.5 137.9 15.4 137.4 15.3 136.8 15.1 136.2 14.9 135.5 14.7 134.9 14.5 134.3 14.2 133.8 13.9 133.3 13.6 132.9 13.2 132.6 12.7 132.3 12.2 132.1 11.6 132.1 10.9L132.1 10.8C132.1 10.1 132.2 9.5 132.5 9 132.8 8.5 133.1 8 133.6 7.6 134.1 7.2 134.7 6.9 135.3 6.7 136 6.5 136.7 6.4 137.5 6.4 138.5 6.4 139.5 6.6 140.5 6.9 141.5 7.2 142.4 7.6 143.3 8.1L142.2 9.8C141.5 9.3 140.7 9 139.9 8.7 139.1 8.4 138.3 8.3 137.5 8.3 136.5 8.3 135.8 8.5 135.2 8.9 134.6 9.3 134.4 9.9 134.4 10.5L134.4 10.6C134.4 11 134.5 11.3 134.7 11.5 134.9 11.8 135.2 12 135.6 12.2 136 12.4 136.4 12.6 136.9 12.7 137.4 12.9 137.9 13 138.5 13.2 139.1 13.4 139.7 13.6 140.3 13.8 140.9 14 141.5 14.3 142 14.6 142.5 14.9 142.9 15.3 143.2 15.8 143.5 16.3 143.6 16.9 143.6 17.6L143.6 17.7C143.6 18.4 143.5 19.1 143.2 19.7 142.9 20.3 142.5 20.7 142 21.1 141.5 21.5 140.9 21.8 140.2 22 139.5 22.3 138.8 22.4 138 22.4zM147 6.4L149.4 6.4 149.4 9.8C149.7 9.3 150.1 8.9 150.5 8.5 150.9 8.1 151.3 7.7 151.8 7.4 152.3 7.1 152.8 6.8 153.4 6.7 154 6.5 154.7 6.4 155.4 6.4 156.3 6.4 157.3 6.6 158.2 6.9 159.1 7.3 159.9 7.8 160.6 8.5 161.3 9.2 161.9 10 162.3 11 162.7 12 162.9 13.1 162.9 14.4L162.9 14.5C162.9 15.7 162.7 16.9 162.3 17.8 161.9 18.8 161.3 19.6 160.6 20.3 159.9 21 159.1 21.5 158.2 21.9 157.3 22.3 156.4 22.4 155.4 22.4 154.7 22.4 154 22.3 153.4 22.1 152.8 21.9 152.2 21.7 151.7 21.4 151.2 21.1 150.8 20.8 150.4 20.4 150 20 149.6 19.6 149.3 19.2L149.3 27.5 147 27.5 147 6.4zM155 20.3C155.8 20.3 156.5 20.2 157.2 19.9 157.9 19.6 158.5 19.2 159 18.7 159.5 18.2 159.9 17.6 160.2 16.9 160.5 16.2 160.6 15.3 160.6 14.4L160.6 14.3C160.6 13.4 160.5 12.6 160.2 11.8 159.9 11.1 159.5 10.5 159 9.9 158.5 9.4 157.9 9 157.2 8.7 156.5 8.4 155.8 8.3 155.1 8.3 154.4 8.3 153.7 8.4 153 8.7 152.3 9 151.7 9.4 151.2 9.9 150.7 10.4 150.2 11 149.9 11.8 149.6 12.5 149.4 13.3 149.4 14.2L149.4 14.3C149.4 15.2 149.6 16 149.9 16.7 150.2 17.4 150.6 18 151.2 18.6 151.7 19.1 152.4 19.5 153 19.8 153.6 20.1 154.3 20.3 155 20.3zM168.4 15.3C168.5 16.1 168.7 16.8 169 17.5 169.3 18.1 169.7 18.7 170.3 19.1 170.8 19.5 171.4 19.9 172 20.1 172.6 20.3 173.3 20.4 174 20.4 175.1 20.4 176.1 20.2 176.8 19.8 177.6 19.4 178.3 18.9 179 18.2L180.5 19.5C179.7 20.4 178.8 21.1 177.8 21.6 176.8 22.1 175.5 22.4 174 22.4 172.9 22.4 171.9 22.2 170.9 21.8 169.9 21.4 169.1 20.9 168.4 20.2 167.7 19.5 167.1 18.7 166.7 17.7 166.3 16.7 166.1 15.6 166.1 14.4 166.1 13.3 166.3 12.3 166.7 11.3 167.1 10.3 167.6 9.5 168.3 8.8 169 8.1 169.8 7.5 170.7 7.1 171.6 6.7 172.6 6.5 173.8 6.5 175 6.5 176 6.7 176.9 7.1 177.8 7.5 178.6 8.1 179.2 8.8 179.8 9.5 180.3 10.4 180.6 11.4 180.9 12.4 181.1 13.4 181.1 14.6 181.1 14.7 181.1 14.8 181.1 14.9 181.1 15 181.1 15.2 181.1 15.4L168.4 15.4 168.4 15.3zM178.6 13.4C178.5 12.7 178.4 12.1 178.1 11.4 177.9 10.8 177.5 10.2 177.1 9.8 176.7 9.3 176.2 9 175.6 8.7 175 8.4 174.3 8.3 173.5 8.3 172.8 8.3 172.2 8.4 171.6 8.7 171 9 170.5 9.3 170 9.8 169.6 10.3 169.2 10.8 168.9 11.4 168.6 12 168.4 12.7 168.3 13.4L178.6 13.4zM185 6.7L187.1 6.7 187.1 10.8C187.4 10.2 187.7 9.6 188.1 9 188.5 8.5 188.9 8 189.4 7.6 189.9 7.2 190.4 6.9 191 6.7 191.6 6.5 192.2 6.4 192.9 6.4L192.9 8.9 192.7 8.9C191.9 8.9 191.2 9.1 190.5 9.4 189.8 9.7 189.2 10.2 188.7 10.8 188.2 11.4 187.8 12.2 187.5 13.1 187.2 14 187.1 15 187.1 16.2L187.1 22.5 185 22.5 185 6.7zM202.2 22.4C201 22.4 199.9 22.2 198.7 21.8 197.5 21.4 196.5 20.8 195.6 20.1L196.8 18.5C197.7 19.1 198.6 19.6 199.5 20 200.4 20.3 201.4 20.5 202.3 20.5 203.3 20.5 204.1 20.3 204.7 19.8 205.3 19.4 205.6 18.8 205.6 18L205.6 18C205.6 17.6 205.5 17.3 205.3 17 205.1 16.7 204.8 16.5 204.4 16.3 204 16.1 203.6 15.9 203.1 15.7 202.6 15.5 202.1 15.4 201.6 15.3 201 15.1 200.4 14.9 199.7 14.7 199.1 14.5 198.5 14.2 198 13.9 197.5 13.6 197.1 13.2 196.8 12.7 196.5 12.2 196.3 11.6 196.3 10.9L196.3 10.8C196.3 10.1 196.4 9.5 196.7 9 197 8.5 197.3 8 197.8 7.6 198.3 7.2 198.9 6.9 199.5 6.7 200.2 6.5 200.9 6.4 201.7 6.4 202.7 6.4 203.7 6.6 204.7 6.9 205.7 7.2 206.6 7.6 207.5 8.1L206.4 9.8C205.7 9.3 204.9 9 204.1 8.7 203.3 8.4 202.5 8.3 201.7 8.3 200.7 8.3 200 8.5 199.4 8.9 198.8 9.3 198.6 9.9 198.6 10.5L198.6 10.6C198.6 11 198.7 11.3 198.9 11.5 199.1 11.8 199.4 12 199.8 12.2 200.2 12.4 200.6 12.6 201.1 12.7 201.6 12.9 202.1 13 202.7 13.2 203.3 13.4 203.9 13.6 204.5 13.8 205.1 14 205.7 14.3 206.2 14.6 206.7 14.9 207.1 15.3 207.4 15.8 207.7 16.3 207.9 16.9 207.9 17.6L207.9 17.7C207.9 18.4 207.7 19.1 207.4 19.7 207.1 20.3 206.7 20.7 206.2 21.1 205.7 21.5 205.1 21.8 204.4 22 203.7 22.3 203 22.4 202.2 22.4zM218.7 22.4C217.5 22.4 216.4 22.2 215.4 21.8 214.4 21.4 213.5 20.8 212.8 20.1 212.1 19.4 211.5 18.5 211.1 17.6 210.7 16.6 210.5 15.6 210.5 14.5L210.5 14.4C210.5 13.3 210.7 12.3 211.1 11.3 211.5 10.3 212.1 9.5 212.8 8.8 213.5 8.1 214.4 7.5 215.5 7.1 216.5 6.7 217.6 6.5 218.9 6.5 220.1 6.5 221.2 6.7 222.2 7.1 223.2 7.5 224.1 8.1 224.9 8.8 225.6 9.5 226.2 10.4 226.6 11.3 227 12.3 227.2 13.3 227.2 14.4L227.2 14.5C227.2 15.6 227 16.6 226.6 17.6 226.2 18.6 225.6 19.4 224.8 20.1 224.1 20.8 223.2 21.4 222.1 21.8 221.1 22.2 219.9 22.4 218.7 22.4zM218.8 20.4C219.7 20.4 220.5 20.2 221.2 19.9 221.9 19.6 222.5 19.2 223.1 18.6 223.6 18.1 224 17.4 224.3 16.7 224.6 16 224.7 15.2 224.7 14.4L224.7 14.3C224.7 13.5 224.6 12.7 224.3 12 224 11.3 223.6 10.6 223 10.1 222.5 9.6 221.8 9.1 221.1 8.8 220.4 8.5 219.6 8.3 218.7 8.3 217.8 8.3 217 8.5 216.3 8.8 215.6 9.1 215 9.5 214.5 10.1 214 10.6 213.6 11.3 213.3 12 213 12.7 212.9 13.5 212.9 14.3L212.9 14.4C212.9 15.2 213 16 213.3 16.7 213.6 17.4 214 18 214.5 18.6 215 19.1 215.7 19.6 216.4 19.9 217.2 20.2 218 20.4 218.8 20.4zM231.2 8.4L229 8.4 229 6.4 231.2 6.4 231.2 5.6C231.2 3.8 231.7 2.5 232.6 1.6 233.4.8 234.6.4 236 .4 236.6.4 237 .4 237.4.5 237.8.6 238.2.7 238.6.8L238.6 2.8C238.2 2.7 237.8 2.6 237.4 2.5 237 2.4 236.7 2.4 236.3 2.4 234.4 2.4 233.5 3.5 233.5 5.7L233.5 6.4 238.6 6.4 238.6 8.4 233.5 8.4 233.5 22.4 231.1 22.4 231.1 8.4 231.2 8.4zM247.2 22.4C246.6 22.4 246 22.3 245.4 22.1 244.8 21.9 244.4 21.7 244 21.3 243.6 20.9 243.3 20.4 243.1 19.8 242.9 19.2 242.8 18.5 242.8 17.6L242.8 8.3 240.6 8.3 240.6 6.3 242.8 6.3 242.8 2.3 245.2 2.3 245.2 6.3 250.3 6.3 250.3 8.3 245.2 8.3 245.2 17.2C245.2 18.2 245.4 18.9 245.9 19.4 246.4 19.8 247 20 247.9 20 248.3 20 248.7 20 249.1 19.9 249.5 19.8 249.8 19.7 250.3 19.5L250.3 21.6C249.9 21.8 249.4 22 249 22.1 248.3 22.3 247.8 22.4 247.2 22.4zM252.4 2.5C252.4 1.6 253.2.8 254.1.8 255 .8 255.8 1.6 255.8 2.5 255.8 3.4 255 4.2 254.1 4.2 253.1 4.2 252.4 3.4 252.4 2.5M252 2.5C252 3.6 252.9 4.6 254.1 4.6 255.3 4.6 256.2 3.7 256.2 2.5 256.2 1.3 255.3.4 254.1.4 252.9.4 252 1.3 252 2.5"/>
    <path d="M254.1,2.5 C254.2,2.5 254.2,2.5 254.3,2.5 C254.4,2.5 254.4,2.5 254.5,2.4 C254.5,2.4 254.6,2.3 254.6,2.3 C254.6,2.3 254.6,2.2 254.6,2.1 C254.6,2 254.6,1.9 254.5,1.8 C254.4,1.7 254.3,1.7 254.1,1.7 L253.8,1.7 L253.8,2.5 L254.1,2.5 Z M253.8,3.6 L253.5,3.6 L253.5,1.4 L254.1,1.4 C254.4,1.4 254.6,1.5 254.7,1.6 C254.8,1.7 254.9,1.9 254.9,2.1 C254.9,2.3 254.9,2.4 254.8,2.5 C254.7,2.6 254.6,2.7 254.4,2.7 L255,3.6 L254.7,3.6 L254.2,2.7 L253.8,2.7 L253.8,3.6 L253.8,3.6 Z"/>
    <polygon points="10.6 3.2 10.6 22.3 7.7 22.3 7.7 3.2 0 3.2 0 .4 18.3 .4 18.3 3.2"/>
    <rect width="2.9" height="21.9" x="20.8" y=".4"/>
    <path d="M36.2 13L31.9 13 31.9 19.9 36.7 19.9C40 19.9 41.6 18.7 41.6 16.5 41.6 13.9 39.3 13 36.2 13M36.5 3.4L32 3.4 32 10.3 36 10.3C39.2 10.3 40.9 8.9 40.9 6.7 40.9 4.6 39.3 3.4 36.5 3.4M44.6 16.4C44.6 20.1 42.1 22.6 36.5 22.6L29 22.6 29 .6 36.3.6C41.6.6 43.9 3 43.9 6.4 43.9 8.7 42.6 10.3 40.1 11.2 43 12 44.6 13.9 44.6 16.4M64.1 4.7C62.2 3.5 60.4 2.9 58.1 2.9 53.3 2.9 50.1 6.1 50.1 11.3 50.1 16.5 53.3 19.8 58.2 19.8 60.6 19.8 62.9 18.9 64.4 17.8L64.9 20.7C63.1 21.8 60.6 22.4 58.1 22.4 51.7 22.4 47.1 18.1 47.1 11.5 47.1 4.8 51.7.4 58.1.4 60.6.4 63.3 1.1 65.1 2.1L64.1 4.7z"/>
    <g transform="translate(65)">
      <path d="M18,1.9 C17.7,1.7 17.3,1.5 17,1.4 C14.1,6.7 8.9,12.9 2,16.5 C2.4,17.4 2.9,18.1 3.5,18.8 C9.5,14.9 14.9,8.4 18,1.9"/>
      <path d="M16.7 1.3C15.3.7 13.7.4 11.9.4 5.5.4.9 5.2.9 11.4.9 12.5 1 13.5 1.2 14.4 7.9 11.9 13.8 6.2 16.7 1.3M18.3 2.1C14.9 10.1 10.8 15.7 5.5 20.6 7.3 21.8 9.5 22.4 12 22.4 18.4 22.4 23 17.6 23 11.3 23 7.2 21.2 3.9 18.3 2.1"/>
    </g>
    <g transform="translate(88)">
      <path d="M1.2,2.1 C1.2,1.2 2,0.4 2.9,0.4 C3.8,0.4 4.6,1.2 4.6,2.1 C4.6,3 3.8,3.8 2.9,3.8 C1.9,3.8 1.2,3 1.2,2.1 M0.8,2.1 C0.8,3.2 1.7,4.2 2.9,4.2 C4.1,4.2 5,3.3 5,2.1 C5,0.9 4.1,0 2.9,0 C1.7,0 0.8,0.9 0.8,2.1"/>
      <path d="M2.9,2.1 C3,2.1 3,2.1 3.1,2.1 C3.2,2.1 3.2,2.1 3.3,2 C3.3,2 3.4,1.9 3.4,1.9 C3.4,1.9 3.4,1.8 3.4,1.7 C3.4,1.6 3.4,1.5 3.3,1.4 C3.2,1.3 3.1,1.3 2.9,1.3 L2.6,1.3 L2.6,2.1 L2.9,2.1 Z M2.5,3.2 L2.2,3.2 L2.2,1 L2.8,1 C3.1,1 3.3,1.1 3.4,1.2 C3.5,1.3 3.6,1.5 3.6,1.7 C3.6,1.9 3.6,2 3.5,2.1 C3.4,2.2 3.3,2.3 3.1,2.3 L3.7,3.2 L3.4,3.2 L2.9,2.3 L2.5,2.3 L2.5,3.2 L2.5,3.2 Z"/>
    </g>
  </g>
</svg>
