<svg xmlns="http://www.w3.org/2000/svg" width="20" height="228" viewBox="0 0 20 228">
  <g fill="none" fill-rule="evenodd">
    <path fill="#FFF" fill-rule="nonzero" d="M15.9803,18 L-0.001,18 C-0.5527,18 -1,17.559 -1,17.0154 L-1,1.2582 C-1,0.7146 -0.5527,0.2736 -0.001,0.2736 L6.6113,0.2736 C7.1621,0.2736 7.6103,0.7146 7.6103,1.2582 C7.6103,1.8018 7.1621,2.2428 6.6113,2.2428 L0.998,2.2428 L0.998,16.0308 L14.9813,16.0308 L14.9813,10.251 C14.9813,9.7074 15.4286,9.2655 15.9803,9.2655 C16.532,9.2655 16.9793,9.7065 16.9793,10.251 L16.9793,17.0154 C16.9793,17.559 16.532,18 15.9803,18 M9.7721,8.7336 L14.5997,3.9735 L14.5124,6.0795 C14.4989,6.3882 14.6141,6.7005 14.8544,6.9381 C15.3035,7.3809 16.0262,7.3899 16.4654,6.9561 C16.6706,6.7545 16.7777,6.4917 16.7894,6.2244 L16.9991,1.1961 C17.0113592,0.874728307 16.8871254,0.563162947 16.6571,0.3384 C16.426479,0.110455592 16.111714,-0.0117357857 15.7877,0.0009 L10.6883,0.2079 C10.4099243,0.218271746 10.1454525,0.332212876 9.9467,0.5274 C9.73570795,0.739014758 9.61872922,1.02662071 9.62211516,1.32543 C9.6255011,1.62423928 9.74896694,1.90912065 9.9647,2.1159 C10.2059,2.3544 10.5218,2.4669 10.8332,2.4543 L12.9698,2.3661 L8.1422,7.1271 C7.93132461,7.33883467 7.81450678,7.62650913 7.81798319,7.92531904 C7.82161727,8.22412894 7.94524657,8.50894256 8.1611,8.7156 C8.6111,9.1593 9.3329,9.1674 9.7721,8.7336" transform="translate(1 210)"/>
    <path fill="#FFF" fill-rule="nonzero" d="M12.3066,15.912 L12.2319,15.7473 L10.7685,12.5217 C10.7532,12.4893 10.7289,12.4641 10.7082,12.4344 L10.7262,12.429 C11.565329,12.0477572 12.216829,11.3463413 12.5352,10.4814 C12.5649,10.4994 12.5919,10.5219 12.6252,10.5354 L15.9426,11.781 L16.1082,11.844 C15.4330863,13.6520199 14.0648256,15.1161625 12.3066,15.912 L12.3066,15.912 Z M6.0516,10.3383 C5.31376806,8.70940383 6.03468981,6.79070482 7.6626,6.0507 C9.29127675,5.31400734 11.208935,6.03468933 11.9493,7.6617 C12.6876686,9.29057845 11.9666024,11.2096619 10.3383,11.9493 C8.70942155,12.6876686 6.79033807,11.9666024 6.0507,10.3383 L6.0516,10.3383 Z M7.4493,12.6306 L6.2109,15.9282 L6.1488,16.0938 C4.35129024,15.4219036 2.89548133,14.0616372 2.1033,12.3138 L2.2671,12.2391 L5.4738,10.7829 C5.5071,10.7694 5.5323,10.7442 5.5611,10.7244 L5.5665,10.7424 C5.94559145,11.5765296 6.64321041,12.2239019 7.5033,12.5397 C7.4853,12.5694 7.4628,12.5964 7.4493,12.6306 L7.4493,12.6306 Z M1.8909,6.156 C2.56691557,4.3482406 3.93530719,2.88430446 5.6934,2.088 L5.7681,2.2527 L7.2315,5.4774 C7.2468,5.5107 7.2711,5.5359 7.2909,5.5656 C7.2855,5.5683 7.2792,5.5683 7.2738,5.571 C6.4344108,5.95160229 5.78298368,6.65328884 5.4657,7.5186 C5.4351,7.5006 5.4081,7.4781 5.3739,7.4646 L2.0574,6.219 L1.8909,6.156 Z M10.5507,5.3694 L11.79,2.0718 L11.8512,1.9062 C13.6491443,2.57787631 15.1051241,3.93862633 15.8967,5.6871 L15.7329,5.7609 L12.5262,7.2162 C12.4929,7.2315 12.4677,7.2558 12.4389,7.2756 L12.4326,7.2585 C12.0544538,6.42414411 11.3573947,5.77636546 10.4976,5.4603 C10.5156,5.4306 10.5372,5.4036 10.5516,5.3703 L10.5507,5.3694 Z M16.6167,5.5449 L16.533,5.5818 C15.627423,3.5834241 13.9630157,2.02816361 11.9079,1.26 L11.9439,1.17 C12.0636,0.846 11.8962,0.4752 11.5659,0.3762 C9.69696162,-0.182670224 7.69668831,-0.116310446 5.8689,0.5652 C5.5449,0.6858 5.4009,1.0692 5.5449,1.3842 L5.5818,1.467 C3.58336637,2.37295141 2.02813426,4.03765217 1.26,6.093 L1.17,6.0579 C0.8469,5.9373 0.4752,6.1047 0.3762,6.4359 C-0.182670224,8.30483838 -0.116310446,10.3051117 0.5652,12.1329 C0.6858,12.4569 1.0692,12.6009 1.3842,12.4569 L1.467,12.4191 C2.37300554,14.417697 4.03764516,15.9731958 6.093,16.7418 L6.0588,16.8318 C5.9373,17.1558 6.1047,17.5275 6.435,17.6256 C8.30399816,18.1840081 10.3041214,18.1176533 12.132,17.4366 C12.4569,17.316 12.6,16.9326 12.4578,16.6176 L12.4191,16.5339 C14.4175801,15.6281864 15.9730803,13.9638693 16.7418,11.9088 L16.8318,11.9448 C17.1558,12.0645 17.5275,11.8971 17.6256,11.5668 C18.1840081,9.69780184 18.1176533,7.69767858 17.4366,5.8698 C17.3151,5.5449 16.9317,5.4009 16.6167,5.5449 Z" transform="translate(0 180)"/>
    <g fill-rule="nonzero" transform="translate(0 150)">
      <circle cx="9" cy="9" r="8.5" stroke="#FFF"/>
      <polygon fill="#FFF" points="10 5 15 13 5 13" transform="rotate(90 10 9)"/>
    </g>
    <path fill="#FFF" fill-rule="nonzero" d="M9,0 C13.9705627,0 18,4.02943725 18,9 C18,13.9705627 13.9705627,18 9,18 C4.02943725,18 0,13.9705627 0,9 C0,4.02943725 4.02943725,0 9,0 Z M6,4 L6,14 L14,9 L6,4 Z" transform="translate(0 120)"/>
    <path fill="#FFF" fill-rule="nonzero" d="M5.4,-1.27453603e-13 L10.2,5.04 L7.799,5.039 L7.799,8.951 L13.352,8.951 L13.3527344,6.79148437 L18.9527344,11.1114844 L13.3527344,15.4314844 L13.352,13.271 L7.799,13.271 L7.8,18 L3,18 L2.999,5.039 L0.6,5.04 L5.4,-1.27453603e-13 Z" transform="translate(0 90)"/>
    <path fill="#FFF" fill-rule="nonzero" d="M10.1417161,4.79166667 C8.80842621,4.79166667 7.72758115,3.71901555 7.72758115,2.39583333 C7.72758115,1.07265112 8.80842621,0 10.1417161,0 C11.475006,0 12.5558511,1.07265112 12.5558511,2.39583333 C12.5558511,3.71901555 11.475006,4.79166667 10.1417161,4.79166667 Z M9.49794682,5.59027778 L10.7854855,5.59027778 C12.6520914,5.59027778 14.1652745,7.54072213 14.1652745,9.94671717 L14.1652745,17 L6.11815782,17 L6.11815782,9.94671717 C6.11815782,7.54072213 7.6313409,5.59027778 9.49794682,5.59027778 Z M3.67089469,5.88517711 C2.31930859,5.88517711 1.22363156,4.80314117 1.22363156,3.4683822 C1.22363156,2.13362324 2.31930859,1.0515873 3.67089469,1.0515873 C5.0224808,1.0515873 6.11815782,2.13362324 6.11815782,3.4683822 C6.11815782,4.80314117 5.0224808,5.88517711 3.67089469,5.88517711 Z M16.4991647,5.86767573 C15.2101927,5.86767573 14.1652745,4.78920228 14.1652745,3.45883786 C14.1652745,2.12847345 15.2101927,1.05 16.4991647,1.05 C17.7881367,1.05 18.8330549,2.12847345 18.8330549,3.45883786 C18.8330549,4.78920228 17.7881367,5.86767573 16.4991647,5.86767573 Z M4.89452626,10.1187156 L4.89452626,15.3439593 L-3.99680289e-14,15.3439593 L-3.99680289e-14,9.84370279 C-3.99680289e-14,8.32484891 1.09567702,7.09357456 2.44726313,7.09357456 L4.89452626,7.09357456 C5.13583487,7.09982876 5.3749926,7.14616595 5.60423257,7.23108097 C5.14304406,8.10542374 4.89803225,9.10232144 4.89452626,10.1187156 Z M17.6661098,7.09 C18.9550818,7.09 20,8.32121694 20,9.84 L20,15.34 L15.3322196,15.34 L15.3322196,10.115 C15.328876,9.09865321 15.0952148,8.101802 14.6553914,7.2275 C14.8740115,7.14258894 15.10209,7.09625391 15.3322196,7.09 L17.6661098,7.09 Z" transform="translate(0 61)"/>
    <g fill-rule="nonzero" transform="translate(0 30)">
      <rect width="12.5" height="14.5" x="4.75" y=".75" stroke="#FFF" stroke-width="1.5" rx="3"/>
      <rect width="8" height="1.5" x="7" y="10" fill="#FFF"/>
      <rect width="8" height="1.5" x="7" y="7" fill="#FFF"/>
      <rect width="8" height="1.5" x="7" y="4" fill="#FFF"/>
      <path stroke="#FFF" stroke-width="1.5" d="M4.75,2.75 L3.75,2.75 C2.6454305,2.75 1.75,3.6454305 1.75,4.75 L1.75,15.25 C1.75,16.3545695 2.6454305,17.25 3.75,17.25 L11.1027344,17.25 C12.2073039,17.25 13.1027344,16.3545695 13.1027344,15.25 L13.1027344,15.1785714 L13.1027344,15.1785714"/>
    </g>
    <g transform="translate(2)">
      <polygon fill="#FFF" fill-rule="nonzero" points="8.972 4 5 11 8.972 11 12 5.62"/>
      <polyline stroke="#FFF" stroke-linecap="round" stroke-linejoin="round" stroke-width="2.5" points="0 12.2 4.053 14 6.852 11 10 12.5 10 17"/>
      <path stroke="#FFF" stroke-linecap="round" stroke-linejoin="round" stroke-width="2.5" d="M4.16271186,7.48252455 L6.65795818,4.92818977 C7.67692921,4.85115972 8.66883444,4.90620444 9.63367388,5.09332392 C10.5985133,5.2804434 11.2912471,5.8566882 11.7118753,6.82205834 L12.8516088,8.65557466 L15.1736293,8.52683378" transform="rotate(5 9.668 6.775)"/>
      <circle cx="12" cy="2" r="2" fill="#FFF" fill-rule="nonzero"/>
    </g>
  </g>
</svg>
